<?xml version="1.0" standalone="yes"?>
<svg xmlns="http://www.w3.org/2000/svg" width="105" height="100">
<path style="fill:#fefefe; stroke:none;" d="M0 0L0 100L105 100L105 0L0 0z"/>
<path style="fill:#c6d8b5; stroke:none;" d="M43.6667 4.33334L44.3333 4.66666L43.6667 4.33334z"/>
<path style="fill:#abc592; stroke:none;" d="M45 4L46 5L45 4z"/>
<path style="fill:#89af61; stroke:none;" d="M46.6667 4.33334L47.3333 4.66666L46.6667 4.33334z"/>
<path style="fill:#609620; stroke:none;" d="M9 38C31.4716 26.04 50.5693 20.7861 76 24L76 25C56.7708 25 38.8419 27.5632 22 37.6042C17.4003 40.3465 9.55777 44.5462 7.91204 50.0394C6.37439 55.1718 9.22251 62.3967 11.3125 67C24.2241 95.438 65.0984 79.9976 86 69C71.8005 81.2858 53.5907 87.5329 35 89L35 90C60.6597 95.8655 83.8123 88.2216 94 62C73.5677 70.5067 54.4179 77.5228 32 72L32 71C49.7884 73.2481 69.3984 68.988 85 59.9853C92.8071 55.4804 101.046 47.1391 93.8356 37.5139C90.6125 33.2112 80.7459 34.0015 76 34C58.0485 33.9942 43.0014 39.5309 27 47C44.0304 31.4564 68.6436 26.2356 91 28C72.909 -4.4563 15.2547 -3.72905 9 38z"/>
<path style="fill:#89af61; stroke:none;" d="M56.6667 4.33334L57.3333 4.66666L56.6667 4.33334z"/>
<path style="fill:#c6d8b5; stroke:none;" d="M58.6667 4.33334L59.3333 4.66666L58.6667 4.33334M39 5L40 6L39 5z"/>
<path style="fill:#89af61; stroke:none;" d="M40 5L41 6L40 5M62 5L63 6L62 5z"/>
<path style="fill:#c6d8b5; stroke:none;" d="M63 5L64 6L63 5M36 6L37 7L36 6z"/>
<path style="fill:#89af61; stroke:none;" d="M37 6L38 7L37 6M65 6L66 7L65 6z"/>
<path style="fill:#c6d8b5; stroke:none;" d="M66 6L67 7L66 6z"/>
<path style="fill:#abc592; stroke:none;" d="M34 7L35 8L34 7z"/>
<path style="fill:#89af61; stroke:none;" d="M68 7L69 8L68 7z"/>
<path style="fill:#c6d8b5; stroke:none;" d="M69 7L70 8L69 7M31 8L32 9L31 8z"/>
<path style="fill:#89af61; stroke:none;" d="M32 8L33 9L32 8M70 8L71 9L70 8z"/>
<path style="fill:#c6d8b5; stroke:none;" d="M71 8L72 9L71 8z"/>
<path style="fill:#89af61; stroke:none;" d="M30 9L31 10L30 9M72 9L73 10L72 9z"/>
<path style="fill:#c6d8b5; stroke:none;" d="M73 9L74 10L73 9z"/>
<path style="fill:#abc592; stroke:none;" d="M28 10L29 11L28 10z"/>
<path style="fill:#89af61; stroke:none;" d="M74 10L75 11L74 10z"/>
<path style="fill:#c6d8b5; stroke:none;" d="M26 11L27 12L26 11M76 11L77 12L76 11z"/>
<path style="fill:#abc592; stroke:none;" d="M25 12L26 13L25 12z"/>
<path style="fill:#89af61; stroke:none;" d="M77 12L78 13L77 12M24 13L25 14L24 13z"/>
<path style="fill:#c6d8b5; stroke:none;" d="M80 14L81 15L80 14M21 15L22 16L21 15z"/>
<path style="fill:#abc592; stroke:none;" d="M81 15L82 16L81 15z"/>
<path style="fill:#c6d8b5; stroke:none;" d="M20 16L21 17L20 16z"/>
<path style="fill:#abc592; stroke:none;" d="M82 16L83 17L82 16z"/>
<path style="fill:#c6d8b5; stroke:none;" d="M19 17L20 18L19 17z"/>
<path style="fill:#abc592; stroke:none;" d="M83 17L84 18L83 17z"/>
<path style="fill:#c6d8b5; stroke:none;" d="M18 18L19 19L18 18z"/>
<path style="fill:#abc592; stroke:none;" d="M84 18L85 19L84 18z"/>
<path style="fill:#c6d8b5; stroke:none;" d="M17 19L18 20L17 19M85 19L86 20L85 19z"/>
<path style="fill:#89af61; stroke:none;" d="M16 21L17 22L16 21z"/>
<path style="fill:#abc592; stroke:none;" d="M15 22L16 23L15 22z"/>
<path style="fill:#89af61; stroke:none;" d="M54 22L54 23L58 23L54 22z"/>
<path style="fill:#abc592; stroke:none;" d="M58 22L58 23L63 23L58 22z"/>
<path style="fill:#89af61; stroke:none;" d="M63.6667 22.3333L64.3333 22.6667L63.6667 22.3333M87 22L88 23L87 22z"/>
<path style="fill:#c6d8b5; stroke:none;" d="M14 23L15 24L14 23z"/>
<path style="fill:#89af61; stroke:none;" d="M45.6667 23.3333L46.3333 23.6667L45.6667 23.3333z"/>
<path style="fill:#abc592; stroke:none;" d="M47 23L48 24L47 23z"/>
<path style="fill:#c6d8b5; stroke:none;" d="M48.6667 23.3333L49.3333 23.6667L48.6667 23.3333M69.6667 23.3333L70.3333 23.6667L69.6667 23.3333z"/>
<path style="fill:#abc592; stroke:none;" d="M71 23L67 24L67 25L71 23z"/>
<path style="fill:#89af61; stroke:none;" d="M72 23L73 24L72 23z"/>
<path style="fill:#c6d8b5; stroke:none;" d="M88 23L89 24L88 23z"/>
<path style="fill:#89af61; stroke:none;" d="M40.6667 24.3333L41.3333 24.6667L40.6667 24.3333z"/>
<path style="fill:#c6d8b5; stroke:none;" d="M42.6667 24.3333L43.3333 24.6667L42.6667 24.3333M62 24L62 25L67 25L62 24M72.6667 24.3333L73.3333 24.6667L72.6667 24.3333z"/>
<path style="fill:#abc592; stroke:none;" d="M74 24L75 25L74 24z"/>
<path style="fill:#89af61; stroke:none;" d="M75 24L76 25L75 24z"/>
<path style="fill:#abc592; stroke:none;" d="M13 25L14 26L13 25M37 25L38 26L37 25z"/>
<path style="fill:#c6d8b5; stroke:none;" d="M38 25L39 26L38 25M54.6667 25.3333L55.3333 25.6667L54.6667 25.3333z"/>
<path style="fill:#abc592; stroke:none;" d="M56 25L57 26L56 25z"/>
<path style="fill:#89af61; stroke:none;" d="M57 25L58 26L57 25M89 25L90 26L89 25M33 26L34 27L33 26z"/>
<path style="fill:#c6d8b5; stroke:none;" d="M34 26L35 27L34 26M49 26L50 27L49 26z"/>
<path style="fill:#abc592; stroke:none;" d="M50 26L51 27L50 26z"/>
<path style="fill:#89af61; stroke:none;" d="M51 26L52 27L51 26z"/>
<path style="fill:#c6d8b5; stroke:none;" d="M90 26L91 27L90 26z"/>
<path style="fill:#89af61; stroke:none;" d="M12 27L13 28L12 27z"/>
<path style="fill:#abc592; stroke:none;" d="M30 27L31 28L30 27z"/>
<path style="fill:#c6d8b5; stroke:none;" d="M31 27L32 28L31 27M45 27L46 28L45 27z"/>
<path style="fill:#abc592; stroke:none;" d="M46 27L47 28L46 27z"/>
<path style="fill:#89af61; stroke:none;" d="M78 27L78 28L87 28L78 27z"/>
<path style="fill:#c6d8b5; stroke:none;" d="M11 28L12 29L11 28z"/>
<path style="fill:#89af61; stroke:none;" d="M27 28L28 29L27 28z"/>
<path style="fill:#c6d8b5; stroke:none;" d="M28 28L29 29L28 28M42 28L43 29L42 28z"/>
<path style="fill:#89af61; stroke:none;" d="M43 28L44 29L43 28M69 28L70 29L69 28z"/>
<path style="fill:#abc592; stroke:none;" d="M70.6667 28.3333L71.3333 28.6667L70.6667 28.3333z"/>
<path style="fill:#c6d8b5; stroke:none;" d="M72.6667 28.3333L73.3333 28.6667L72.6667 28.3333z"/>
<path style="fill:#89af61; stroke:none;" d="M11 29L12 30L11 29z"/>
<path style="fill:#abc592; stroke:none;" d="M25 29L26 30L25 29M39 29L40 30L39 29z"/>
<path style="fill:#89af61; stroke:none;" d="M63 29L64 30L63 29z"/>
<path style="fill:#abc592; stroke:none;" d="M64 29L65 30L64 29z"/>
<path style="fill:#c6d8b5; stroke:none;" d="M65 29L66 30L65 29M10 30L11 31L10 30z"/>
<path style="fill:#89af61; stroke:none;" d="M22 30L23 31L22 30z"/>
<path style="fill:#c6d8b5; stroke:none;" d="M23 30L24 31L23 30M36 30L37 31L36 30z"/>
<path style="fill:#89af61; stroke:none;" d="M58 30L59 31L58 30z"/>
<path style="fill:#abc592; stroke:none;" d="M59 30L60 31L59 30z"/>
<path style="fill:#c6d8b5; stroke:none;" d="M60 30L61 31L60 30z"/>
<path style="fill:#89af61; stroke:none;" d="M10 31L11 32L10 31M20 31L21 32L20 31z"/>
<path style="fill:#c6d8b5; stroke:none;" d="M21 31L22 32L21 31M33 31L34 32L33 31z"/>
<path style="fill:#89af61; stroke:none;" d="M34 31L35 32L34 31M55 31L56 32L55 31z"/>
<path style="fill:#c6d8b5; stroke:none;" d="M56 31L57 32L56 31z"/>
<path style="fill:#89af61; stroke:none;" d="M18 32L19 33L18 32z"/>
<path style="fill:#c6d8b5; stroke:none;" d="M31 32L32 33L31 32z"/>
<path style="fill:#89af61; stroke:none;" d="M32 32L33 33L32 32M52 32L53 33L52 32z"/>
<path style="fill:#c6d8b5; stroke:none;" d="M53 32L54 33L53 32M9 33L10 34L9 33z"/>
<path style="fill:#89af61; stroke:none;" d="M16 33L17 34L16 33z"/>
<path style="fill:#abc592; stroke:none;" d="M29 33L30 34L29 33z"/>
<path style="fill:#89af61; stroke:none;" d="M49 33L50 34L49 33z"/>
<path style="fill:#c6d8b5; stroke:none;" d="M50 33L51 34L50 33M70 33L70 34L81 34L70 33z"/>
<path style="fill:#89af61; stroke:none;" d="M9 34L10 35L9 34z"/>
<path style="fill:#c6d8b5; stroke:none;" d="M15 34L16 35L15 34z"/>
<path style="fill:#abc592; stroke:none;" d="M27 34L28 35L27 34z"/>
<path style="fill:#c6d8b5; stroke:none;" d="M47 34L48 35L47 34M61.6667 34.3333L62.3333 34.6667L61.6667 34.3333z"/>
<path style="fill:#abc592; stroke:none;" d="M63.6667 34.3333L64.3333 34.6667L63.6667 34.3333z"/>
<path style="fill:#89af61; stroke:none;" d="M65 34L66 35L65 34M85 34L86 35L85 34z"/>
<path style="fill:#abc592; stroke:none;" d="M86.6667 34.3333L87.3333 34.6667L86.6667 34.3333z"/>
<path style="fill:#c6d8b5; stroke:none;" d="M88 34L89 35L88 34M13 35L14 36L13 35z"/>
<path style="fill:#abc592; stroke:none;" d="M25 35L26 36L25 35z"/>
<path style="fill:#89af61; stroke:none;" d="M44 35L45 36L44 35z"/>
<path style="fill:#c6d8b5; stroke:none;" d="M45 35L46 36L45 35M56 35L57 36L56 35z"/>
<path style="fill:#abc592; stroke:none;" d="M57 35L58 36L57 35z"/>
<path style="fill:#89af61; stroke:none;" d="M58 35L59 36L58 35M91 35L92 36L91 35z"/>
<path style="fill:#abc592; stroke:none;" d="M92 35L93 36L92 35z"/>
<path style="fill:#c6d8b5; stroke:none;" d="M93 35L94 36L93 35M8 36L9 37L8 36z"/>
<path style="fill:#89af61; stroke:none;" d="M11 36L12 37L11 36z"/>
<path style="fill:#c6d8b5; stroke:none;" d="M23 36L24 37L23 36z"/>
<path style="fill:#89af61; stroke:none;" d="M42 36L43 37L42 36z"/>
<path style="fill:#c6d8b5; stroke:none;" d="M52 36L53 37L52 36z"/>
<path style="fill:#89af61; stroke:none;" d="M53 36L54 37L53 36z"/>
<path style="fill:#abc592; stroke:none;" d="M94 36L95 37L94 36z"/>
<path style="fill:#89af61; stroke:none;" d="M8 37L9 38L8 37z"/>
<path style="fill:#c6d8b5; stroke:none;" d="M10 37L11 38L10 37z"/>
<path style="fill:#89af61; stroke:none;" d="M22 37L23 38L22 37z"/>
<path style="fill:#abc592; stroke:none;" d="M40 37L41 38L40 37z"/>
<path style="fill:#c6d8b5; stroke:none;" d="M48 37L49 38L48 37z"/>
<path style="fill:#abc592; stroke:none;" d="M49 37L50 38L49 37z"/>
<path style="fill:#89af61; stroke:none;" d="M94 37L95 38L94 37z"/>
<path style="fill:#abc592; stroke:none;" d="M8 38L9 39L8 38M20 38L21 39L20 38z"/>
<path style="fill:#89af61; stroke:none;" d="M38 38L39 39L38 38z"/>
<path style="fill:#c6d8b5; stroke:none;" d="M45 38L46 39L45 38z"/>
<path style="fill:#89af61; stroke:none;" d="M46 38L47 39L46 38z"/>
<path style="fill:#c6d8b5; stroke:none;" d="M18 39L19 40L18 39z"/>
<path style="fill:#89af61; stroke:none;" d="M36 39L37 40L36 39z"/>
<path style="fill:#c6d8b5; stroke:none;" d="M37 39L38 40L37 39M42 39L43 40L42 39z"/>
<path style="fill:#89af61; stroke:none;" d="M43 39L44 40L43 39z"/>
<path style="fill:#c6d8b5; stroke:none;" d="M95.3333 39.6667L95.6667 40.3333L95.3333 39.6667z"/>
<path style="fill:#abc592; stroke:none;" d="M17 40L18 41L17 40z"/>
<path style="fill:#c6d8b5; stroke:none;" d="M35 40L36 41L35 40z"/>
<path style="fill:#abc592; stroke:none;" d="M40 40L41 41L40 40z"/>
<path style="fill:#89af61; stroke:none;" d="M33 41L34 42L33 41z"/>
<path style="fill:#c6d8b5; stroke:none;" d="M37 41L38 42L37 41z"/>
<path style="fill:#89af61; stroke:none;" d="M38 41L39 42L38 41z"/>
<path style="fill:#abc592; stroke:none;" d="M95 41L96 42L95 41z"/>
<path style="fill:#c6d8b5; stroke:none;" d="M14 42L15 43L14 42M32 42L34 44L32 42M35 42L36 43L35 42z"/>
<path style="fill:#89af61; stroke:none;" d="M95 42L96 43L95 42z"/>
<path style="fill:#abc592; stroke:none;" d="M13 43L14 44L13 43z"/>
<path style="fill:#89af61; stroke:none;" d="M30 43L31 44L30 43z"/>
<path style="fill:#fefefe; stroke:none;" d="M29 46L33 44L29 46z"/>
<path style="fill:#89af61; stroke:none;" d="M12 44L13 45L12 44z"/>
<path style="fill:#abc592; stroke:none;" d="M29 44L30 45L29 44z"/>
<path style="fill:#c6d8b5; stroke:none;" d="M31 44L32 45L31 44z"/>
<path style="fill:#89af61; stroke:none;" d="M11 45L12 46L11 45z"/>
<path style="fill:#c6d8b5; stroke:none;" d="M28 45L27 47L28 45z"/>
<path style="fill:#89af61; stroke:none;" d="M30 45L31 46L30 45z"/>
<path style="fill:#abc592; stroke:none;" d="M28 46L29 47L28 46M26 47L27 48L26 47z"/>
<path style="fill:#c6d8b5; stroke:none;" d="M96 47L96 51L97 51L96 47z"/>
<path style="fill:#89af61; stroke:none;" d="M7 49L8 50L7 49M7.33333 52.6667L7.66667 53.3333L7.33333 52.6667M94 53L95 54L94 53z"/>
<path style="fill:#abc592; stroke:none;" d="M7 54L8 55L7 54z"/>
<path style="fill:#c6d8b5; stroke:none;" d="M93 54L94 55L93 54M7.33333 55.6667L7.66667 56.3333L7.33333 55.6667z"/>
<path style="fill:#abc592; stroke:none;" d="M90 56L91 57L90 56z"/>
<path style="fill:#c6d8b5; stroke:none;" d="M89 57L90 58L89 57z"/>
<path style="fill:#abc592; stroke:none;" d="M87 58L88 59L87 58z"/>
<path style="fill:#89af61; stroke:none;" d="M8 59L9 60L8 59M85 59L86 60L85 59z"/>
<path style="fill:#c6d8b5; stroke:none;" d="M8 60L9 61L8 60M84 60L85 61L84 60M82 61L83 62L82 61z"/>
<path style="fill:#89af61; stroke:none;" d="M9 62L10 63L9 62z"/>
<path style="fill:#c6d8b5; stroke:none;" d="M80 62L81 63L80 62M92 62L93 63L92 62M9 63L10 64L9 63z"/>
<path style="fill:#89af61; stroke:none;" d="M77 63L78 64L77 63z"/>
<path style="fill:#c6d8b5; stroke:none;" d="M78 63L79 64L78 63M90 63L91 64L90 63z"/>
<path style="fill:#abc592; stroke:none;" d="M93 63L94 64L93 63z"/>
<path style="fill:#89af61; stroke:none;" d="M75 64L76 65L75 64z"/>
<path style="fill:#c6d8b5; stroke:none;" d="M76 64L77 65L76 64M88 64L89 65L88 64M93 64L94 65L93 64z"/>
<path style="fill:#89af61; stroke:none;" d="M10 65L11 66L10 65M72 65L73 66L72 65z"/>
<path style="fill:#c6d8b5; stroke:none;" d="M73 65L74 66L73 65z"/>
<path style="fill:#abc592; stroke:none;" d="M86 65L87 66L86 65z"/>
<path style="fill:#89af61; stroke:none;" d="M92 65L93 66L92 65z"/>
<path style="fill:#c6d8b5; stroke:none;" d="M10 66L11 67L10 66z"/>
<path style="fill:#abc592; stroke:none;" d="M70 66L71 67L70 66z"/>
<path style="fill:#c6d8b5; stroke:none;" d="M83 66L84 67L83 66z"/>
<path style="fill:#89af61; stroke:none;" d="M84 66L85 67L84 66z"/>
<path style="fill:#c6d8b5; stroke:none;" d="M92 66L93 67L92 66z"/>
<path style="fill:#89af61; stroke:none;" d="M11 67L12 68L11 67z"/>
<path style="fill:#abc592; stroke:none;" d="M67 67L68 68L67 67z"/>
<path style="fill:#c6d8b5; stroke:none;" d="M68 67L69 68L68 67M81 67L82 68L81 67M11 68L12 69L11 68z"/>
<path style="fill:#89af61; stroke:none;" d="M63 68L64 69L63 68z"/>
<path style="fill:#abc592; stroke:none;" d="M64 68L65 69L64 68z"/>
<path style="fill:#c6d8b5; stroke:none;" d="M65 68L66 69L65 68M78 68L79 69L78 68z"/>
<path style="fill:#89af61; stroke:none;" d="M79 68L80 69L79 68M86 68L87 69L86 68z"/>
<path style="fill:#abc592; stroke:none;" d="M91 68L92 69L91 68z"/>
<path style="fill:#89af61; stroke:none;" d="M12 69L13 70L12 69M59 69L60 70L59 69z"/>
<path style="fill:#abc592; stroke:none;" d="M60 69L61 70L60 69z"/>
<path style="fill:#c6d8b5; stroke:none;" d="M61 69L62 70L61 69M75 69L76 70L75 69z"/>
<path style="fill:#89af61; stroke:none;" d="M76 69L77 70L76 69M84 69L85 70L84 69z"/>
<path style="fill:#abc592; stroke:none;" d="M85 69L86 70L85 69z"/>
<path style="fill:#c6d8b5; stroke:none;" d="M12 70L13 71L12 70z"/>
<path style="fill:#89af61; stroke:none;" d="M54.6667 70.3333L55.3333 70.6667L54.6667 70.3333z"/>
<path style="fill:#c6d8b5; stroke:none;" d="M56 70L57 71L56 70M72 70L73 71L72 70z"/>
<path style="fill:#89af61; stroke:none;" d="M73 70L74 71L73 70z"/>
<path style="fill:#c6d8b5; stroke:none;" d="M83 70L84 71L83 70z"/>
<path style="fill:#abc592; stroke:none;" d="M84 70L85 71L84 70z"/>
<path style="fill:#c6d8b5; stroke:none;" d="M90 70L91 71L90 70z"/>
<path style="fill:#89af61; stroke:none;" d="M13 71L14 72L13 71M32 71L32 72L36 72L32 71M46 71L46 72L49 72L46 71z"/>
<path style="fill:#abc592; stroke:none;" d="M49 71L50 72L49 71z"/>
<path style="fill:#c6d8b5; stroke:none;" d="M50.6667 71.3333L51.3333 71.6667L50.6667 71.3333M68 71L69 72L68 71z"/>
<path style="fill:#89af61; stroke:none;" d="M69 71L70 72L69 71z"/>
<path style="fill:#abc592; stroke:none;" d="M81 71L82 72L81 71z"/>
<path style="fill:#fefefe; stroke:none;" d="M82 71L83 72L82 71z"/>
<path style="fill:#89af61; stroke:none;" d="M83 71L84 72L83 71M89 71L90 72L89 71z"/>
<path style="fill:#abc592; stroke:none;" d="M34 72L35 73L34 72z"/>
<path style="fill:#c6d8b5; stroke:none;" d="M35.6667 72.3333L36.3333 72.6667L35.6667 72.3333M62.6667 72.3333L63.3333 72.6667L62.6667 72.3333z"/>
<path style="fill:#abc592; stroke:none;" d="M64 72L65 73L64 72z"/>
<path style="fill:#89af61; stroke:none;" d="M65 72L66 73L65 72z"/>
<path style="fill:#abc592; stroke:none;" d="M79 72L80 73L79 72z"/>
<path style="fill:#fefefe; stroke:none;" d="M80.6667 72.3333L81.3333 72.6667L80.6667 72.3333z"/>
<path style="fill:#c6d8b5; stroke:none;" d="M14 73L15 74L14 73z"/>
<path style="fill:#89af61; stroke:none;" d="M39 73L40 74L39 73z"/>
<path style="fill:#abc592; stroke:none;" d="M40.6667 73.3333L41.3333 73.6667L40.6667 73.3333z"/>
<path style="fill:#c6d8b5; stroke:none;" d="M42 73L42 74L46 74L42 73M54 73L54 74L57 74L54 73z"/>
<path style="fill:#abc592; stroke:none;" d="M57 73L58 74L57 73z"/>
<path style="fill:#89af61; stroke:none;" d="M58.6667 73.3333L59.3333 73.6667L58.6667 73.3333z"/>
<path style="fill:#abc592; stroke:none;" d="M77 73L78 74L77 73z"/>
<path style="fill:#c6d8b5; stroke:none;" d="M80 73L81 74L80 73z"/>
<path style="fill:#abc592; stroke:none;" d="M88 73L89 74L88 73z"/>
<path style="fill:#89af61; stroke:none;" d="M15 74L16 75L15 74z"/>
<path style="fill:#abc592; stroke:none;" d="M75 74L76 75L75 74z"/>
<path style="fill:#89af61; stroke:none;" d="M79 74L80 75L79 74M87 74L88 75L87 74M72 75L73 76L72 75z"/>
<path style="fill:#c6d8b5; stroke:none;" d="M73 75L74 76L73 75M77 75L78 76L77 75z"/>
<path style="fill:#abc592; stroke:none;" d="M70 76L71 77L70 76z"/>
<path style="fill:#c6d8b5; stroke:none;" d="M75 76L76 77L75 76z"/>
<path style="fill:#89af61; stroke:none;" d="M76 76L77 77L76 76z"/>
<path style="fill:#c6d8b5; stroke:none;" d="M86 76L87 77L86 76M17 77L18 78L17 77z"/>
<path style="fill:#89af61; stroke:none;" d="M67 77L68 78L67 77z"/>
<path style="fill:#c6d8b5; stroke:none;" d="M68 77L69 78L68 77z"/>
<path style="fill:#89af61; stroke:none;" d="M74 77L75 78L74 77z"/>
<path style="fill:#c6d8b5; stroke:none;" d="M85 77L86 78L85 77M18 78L19 79L18 78z"/>
<path style="fill:#89af61; stroke:none;" d="M64 78L65 79L64 78z"/>
<path style="fill:#c6d8b5; stroke:none;" d="M65 78L66 79L65 78z"/>
<path style="fill:#abc592; stroke:none;" d="M72 78L73 79L72 78M84 78L85 79L84 78M19 79L20 80L19 79z"/>
<path style="fill:#89af61; stroke:none;" d="M60 79L61 80L60 79z"/>
<path style="fill:#abc592; stroke:none;" d="M61 79L62 80L61 79z"/>
<path style="fill:#c6d8b5; stroke:none;" d="M62 79L63 80L62 79z"/>
<path style="fill:#abc592; stroke:none;" d="M70 79L71 80L70 79M83 79L84 80L83 79M20 80L21 81L20 80z"/>
<path style="fill:#89af61; stroke:none;" d="M56 80L57 81L56 80z"/>
<path style="fill:#abc592; stroke:none;" d="M57 80L58 81L57 80z"/>
<path style="fill:#c6d8b5; stroke:none;" d="M58 80L59 81L58 80z"/>
<path style="fill:#abc592; stroke:none;" d="M68 80L69 81L68 80z"/>
<path style="fill:#89af61; stroke:none;" d="M82 80L83 81L82 80z"/>
<path style="fill:#c6d8b5; stroke:none;" d="M21 81L22 82L21 81z"/>
<path style="fill:#abc592; stroke:none;" d="M22 81L23 82L22 81z"/>
<path style="fill:#89af61; stroke:none;" d="M23 81L24 82L23 81M51 81L52 82L51 81z"/>
<path style="fill:#abc592; stroke:none;" d="M52 81L53 82L52 81z"/>
<path style="fill:#c6d8b5; stroke:none;" d="M53 81L54 82L53 81M65 81L66 82L65 81z"/>
<path style="fill:#89af61; stroke:none;" d="M66 81L67 82L66 81z"/>
<path style="fill:#abc592; stroke:none;" d="M81 81L82 82L81 81z"/>
<path style="fill:#c6d8b5; stroke:none;" d="M26.6667 82.3333L27.3333 82.6667L26.6667 82.3333z"/>
<path style="fill:#abc592; stroke:none;" d="M28.6667 82.3333L29.3333 82.6667L28.6667 82.3333z"/>
<path style="fill:#89af61; stroke:none;" d="M30 82L30 83L34 83L30 82M40 82L40 83L44 83L40 82z"/>
<path style="fill:#abc592; stroke:none;" d="M44.6667 82.3333L45.3333 82.6667L44.6667 82.3333z"/>
<path style="fill:#c6d8b5; stroke:none;" d="M46.6667 82.3333L47.3333 82.6667L46.6667 82.3333z"/>
<path style="fill:#abc592; stroke:none;" d="M63 82L64 83L63 82z"/>
<path style="fill:#c6d8b5; stroke:none;" d="M80 82L81 83L80 82M60 83L61 84L60 83z"/>
<path style="fill:#89af61; stroke:none;" d="M61 83L62 84L61 83z"/>
<path style="fill:#c6d8b5; stroke:none;" d="M79 83L80 84L79 83M57 84L58 85L57 84z"/>
<path style="fill:#89af61; stroke:none;" d="M58 84L59 85L58 84M77 84L78 85L77 84z"/>
<path style="fill:#c6d8b5; stroke:none;" d="M53 85L54 86L53 85z"/>
<path style="fill:#abc592; stroke:none;" d="M54 85L55 86L54 85M76 85L77 86L76 85z"/>
<path style="fill:#c6d8b5; stroke:none;" d="M49 86L50 87L49 86z"/>
<path style="fill:#abc592; stroke:none;" d="M50 86L51 87L50 86z"/>
<path style="fill:#89af61; stroke:none;" d="M74 86L75 87L74 86z"/>
<path style="fill:#c6d8b5; stroke:none;" d="M43.6667 87.3333L44.3333 87.6667L43.6667 87.3333z"/>
<path style="fill:#abc592; stroke:none;" d="M45 87L46 88L45 87z"/>
<path style="fill:#89af61; stroke:none;" d="M46 87L47 88L46 87z"/>
<path style="fill:#c6d8b5; stroke:none;" d="M73 87L74 88L73 87M33 90L37 89L33 90z"/>
<path style="fill:#abc592; stroke:none;" d="M37 88L38 89L37 88z"/>
<path style="fill:#89af61; stroke:none;" d="M38.6667 88.3333L39.3333 88.6667L38.6667 88.3333M70 88L71 89L70 88z"/>
<path style="fill:#c6d8b5; stroke:none;" d="M71 88L72 89L71 88z"/>
<path style="fill:#89af61; stroke:none;" d="M34 89L35 90L34 89M68 89L69 90L68 89z"/>
<path style="fill:#c6d8b5; stroke:none;" d="M69 89L70 90L69 89M36 90L37 91L36 90z"/>
<path style="fill:#89af61; stroke:none;" d="M37 90L38 91L37 90M65 90L66 91L65 90z"/>
<path style="fill:#abc592; stroke:none;" d="M66 90L67 91L66 90z"/>
<path style="fill:#c6d8b5; stroke:none;" d="M39 91L40 92L39 91z"/>
<path style="fill:#89af61; stroke:none;" d="M40 91L41 92L40 91M62 91L63 92L62 91z"/>
<path style="fill:#c6d8b5; stroke:none;" d="M63 91L64 92L63 91M43 92L44 93L43 92z"/>
<path style="fill:#abc592; stroke:none;" d="M44 92L45 93L44 92z"/>
<path style="fill:#89af61; stroke:none;" d="M45.6667 92.3333L46.3333 92.6667L45.6667 92.3333M56 92L57 93L56 92z"/>
<path style="fill:#abc592; stroke:none;" d="M57.6667 92.3333L58.3333 92.6667L57.6667 92.3333z"/>
<path style="fill:#c6d8b5; stroke:none;" d="M59 92L60 93L59 92z"/>
</svg>
